<svg xmlns="http://www.w3.org/2000/svg" width="1200" height="630" viewBox="0 0 1200 630">
  <defs>
    <linearGradient id="bg" x1="0%" y1="0%" x2="100%" y2="100%">
      <stop offset="0%" style="stop-color:#0f172a"/>
      <stop offset="100%" style="stop-color:#1e293b"/>
    </linearGradient>
  </defs>
  
  <rect fill="url(#bg)" width="1200" height="630"/>
  
  <!-- Grid pattern -->
  <pattern id="grid" width="40" height="40" patternUnits="userSpaceOnUse">
    <path d="M 40 0 L 0 0 0 40" fill="none" stroke="#334155" stroke-width="0.5" opacity="0.3"/>
  </pattern>
  <rect fill="url(#grid)" width="1200" height="630"/>
  
  <!-- Accent glow -->
  <ellipse cx="600" cy="300" rx="300" ry="150" fill="#3b82f6" opacity="0.05"/>
  
  <!-- Badge -->
  <g transform="translate(50, 40)">
    <rect x="0" y="0" width="140" height="32" rx="16" fill="#3b82f6" opacity="0.2"/>
    <text x="70" y="21" text-anchor="middle" fill="#3b82f6" font-family="system-ui, sans-serif" font-size="12" font-weight="600">CREDENTIALS</text>
  </g>
  
  <!-- Main headline -->
  <text x="600" y="130" text-anchor="middle" fill="white" font-family="system-ui, sans-serif" font-size="52" font-weight="700">
    UNIFIED AI KEY
  </text>
  <text x="600" y="195" text-anchor="middle" fill="#3b82f6" font-family="system-ui, sans-serif" font-size="52" font-weight="700">
    MANAGEMENT
  </text>
  
  <!-- Shield with key visual -->
  <g transform="translate(500, 230)">
    <path d="M100 0 L200 40 L200 120 C200 180 100 220 100 220 C100 220 0 180 0 120 L0 40 Z" 
          fill="#1e293b" stroke="#3b82f6" stroke-width="3"/>
    <text x="100" y="120" text-anchor="middle" fill="white" font-family="system-ui, sans-serif" font-size="48">🔐</text>
  </g>
  
  <!-- Provider icons around shield -->
  <g transform="translate(200, 280)">
    <rect x="0" y="0" width="120" height="50" rx="8" fill="#1e293b" stroke="#22c55e" stroke-width="2"/>
    <text x="60" y="32" text-anchor="middle" fill="#22c55e" font-family="system-ui, sans-serif" font-size="14" font-weight="600">OpenAI</text>
  </g>
  
  <g transform="translate(200, 350)">
    <rect x="0" y="0" width="120" height="50" rx="8" fill="#1e293b" stroke="#8b5cf6" stroke-width="2"/>
    <text x="60" y="32" text-anchor="middle" fill="#8b5cf6" font-family="system-ui, sans-serif" font-size="14" font-weight="600">DeepSeek</text>
  </g>
  
  <g transform="translate(880, 280)">
    <rect x="0" y="0" width="120" height="50" rx="8" fill="#1e293b" stroke="#f59e0b" stroke-width="2"/>
    <text x="60" y="32" text-anchor="middle" fill="#f59e0b" font-family="system-ui, sans-serif" font-size="14" font-weight="600">Gemini</text>
  </g>
  
  <g transform="translate(880, 350)">
    <rect x="0" y="0" width="120" height="50" rx="8" fill="#1e293b" stroke="#3b82f6" stroke-width="2"/>
    <text x="60" y="32" text-anchor="middle" fill="#3b82f6" font-family="system-ui, sans-serif" font-size="14" font-weight="600">Kimi K2</text>
  </g>
  
  <!-- Connecting lines -->
  <line x1="320" y1="305" x2="500" y2="330" stroke="#334155" stroke-width="1" stroke-dasharray="5,5"/>
  <line x1="320" y1="375" x2="500" y2="350" stroke="#334155" stroke-width="1" stroke-dasharray="5,5"/>
  <line x1="700" y1="330" x2="880" y2="305" stroke="#334155" stroke-width="1" stroke-dasharray="5,5"/>
  <line x1="700" y1="350" x2="880" y2="375" stroke="#334155" stroke-width="1" stroke-dasharray="5,5"/>
  
  <!-- Stats -->
  <g transform="translate(350, 480)">
    <text x="0" y="0" fill="#22c55e" font-family="system-ui, sans-serif" font-size="32" font-weight="700">6+</text>
    <text x="60" y="0" fill="#94a3b8" font-family="system-ui, sans-serif" font-size="20">Providers</text>
  </g>
  
  <g transform="translate(550, 480)">
    <text x="0" y="0" fill="#3b82f6" font-family="system-ui, sans-serif" font-size="32" font-weight="700">99.9%</text>
    <text x="100" y="0" fill="#94a3b8" font-family="system-ui, sans-serif" font-size="20">Uptime</text>
  </g>
  
  <g transform="translate(780, 480)">
    <text x="0" y="0" fill="#f59e0b" font-family="system-ui, sans-serif" font-size="32" font-weight="700">Auto</text>
    <text x="70" y="0" fill="#94a3b8" font-family="system-ui, sans-serif" font-size="20">Failover</text>
  </g>
  
  <!-- Subheadline -->
  <text x="600" y="545" text-anchor="middle" fill="white" font-family="system-ui, sans-serif" font-size="22">
    One dashboard for all AI providers with automatic failover
  </text>
  
  <!-- Footer -->
  <line x1="200" y1="575" x2="1000" y2="575" stroke="#334155" stroke-width="1"/>
  <text x="600" y="610" text-anchor="middle" fill="#64748b" font-family="system-ui, sans-serif" font-size="18">
    suite-beta.vercel.app/credentials
  </text>
</svg>